<?xml version="1.0" standalone="no"?><!DOCTYPE svg PUBLIC "-//W3C//DTD SVG 1.1//EN" "http://www.w3.org/Graphics/SVG/1.1/DTD/svg11.dtd"><svg t="1736340110788" class="icon" viewBox="0 0 1024 1024" version="1.1" xmlns="http://www.w3.org/2000/svg" p-id="6695" xmlns:xlink="http://www.w3.org/1999/xlink" width="200" height="200"><path d="M927.293688 115.036061 662.172007 115.036061c-61.876647 0-116.913015 29.827073-151.491372 75.855633-34.586211-46.02856-89.622578-75.855633-151.499225-75.855633L94.075435 115.036061c-41.756331 0-75.745686 33.973648-75.745686 75.745686l0 700.653486c0 41.756331 33.957942 75.745686 75.745686 75.745686l278.433131 0c37.162114 36.321804 86.61474 56.811228 138.179922 56.811228 51.557328 0 101.009955-20.489424 138.179922-56.811228l278.433131 0c41.756331 0 75.745686-33.950088 75.745686-75.745686L1003.047228 190.781747C1003.039374 149.025416 969.081433 115.036061 927.293688 115.036061L927.293688 115.036061zM927.293688 891.443086l-294.815247 0c-11.057535 0-21.565335 4.806258-28.774722 13.24077-23.709303 27.667398-57.627978 43.570458-93.023085 43.570458s-69.313782-15.90306-93.023085-43.570458c-7.209387-8.434512-17.709334-13.24077-28.774722-13.24077l-294.815247 0L94.067582 190.781747l265.105974 0c62.661983 0 113.622456 50.968326 113.622456 113.622456l0 321.925056c0 20.937066 16.939704 37.87677 37.87677 37.87677 20.937066 0 37.87677-16.939704 37.87677-37.87677L548.549551 304.404203c0-62.65413 50.968326-113.622456 113.614602-113.622456l265.113828 0L927.277981 891.443086 927.293688 891.443086z" fill="#272635" p-id="6696"></path></svg>